HIERARCHY
ROOT hip
{
  OFFSET 0 0 0
  CHANNELS 6 Xposition Yposition Zposition Zrotation Yrotation Xrotation
  JOINT abdomen
  {
    OFFSET 0 20.6881 -0.73152
    CHANNELS 3 Zrotation Xrotation Yrotation
    JOINT chest
    {
      OFFSET 0 11.7043 -0.48768
      CHANNELS 3 Zrotation Xrotation Yrotation
      JOINT neck
      {
        OFFSET 0 22.1894 -2.19456
        CHANNELS 3 Zrotation Xrotation Yrotation
        JOINT head
        {
          OFFSET -0.24384 7.07133 1.2192
          CHANNELS 3 Zrotation Xrotation Yrotation
          JOINT leftEye
          {
            OFFSET 4.14528 8.04674 8.04672
            CHANNELS 3 Zrotation Xrotation Yrotation
            End Site
            {
              OFFSET 1 0 0
            }
          }
          JOINT rightEye
          {
            OFFSET -3.6576 8.04674 8.04672
            CHANNELS 3 Zrotation Xrotation Yrotation
            End Site
            {
              OFFSET 1 0 0
            }
          }
        }
      }
      JOINT rCollar
      {
        OFFSET -2.68224 19.2634 -4.8768
        CHANNELS 3 Zrotation Xrotation Yrotation
        JOINT rShldr
        {
          OFFSET -8.77824 -1.95073 1.46304
          CHANNELS 3 Zrotation Xrotation Yrotation
          JOINT rForeArm
          {
            OFFSET -28.1742 -1.7115 0.48768
            CHANNELS 3 Zrotation Xrotation Yrotation
            JOINT rHand
            {
              OFFSET -22.5879 0.773209 7.07136
              CHANNELS 3 Zrotation Xrotation Yrotation
              JOINT rThumb1
              {
                OFFSET -1.2192 -0.487915 3.41376
                CHANNELS 3 Zrotation Xrotation Yrotation
                JOINT rThumb2
                {
                  OFFSET -3.37035 -0.52449 3.41376
                  CHANNELS 3 Zrotation Xrotation Yrotation
                  End Site
                  {
                    OFFSET -1.78271 -1.18214 1.43049
                  }
                }
              }
              JOINT rIndex1
              {
                OFFSET -7.75947 0.938293 5.60832
                CHANNELS 3 Zrotation Xrotation Yrotation
                JOINT rIndex2
                {
                  OFFSET -2.54057 -0.884171 1.56538
                  CHANNELS 3 Zrotation Xrotation Yrotation
                  End Site
                  {
                    OFFSET -1.62519 -0.234802 1.16502
                  }
                }
              }
              JOINT rMid1
              {
                OFFSET -8.24714 1.18213 3.41376
                CHANNELS 3 Zrotation Xrotation Yrotation
                JOINT rMid2
                {
                  OFFSET -3.10165 -0.590103 1.0647
                  CHANNELS 3 Zrotation Xrotation Yrotation
                  End Site
                  {
                    OFFSET -2.48547 -0.328903 0.83742
                  }
                }
              }
              JOINT rRing1
              {
                OFFSET -8.82822 0.546677 1.51678
                CHANNELS 3 Zrotation Xrotation Yrotation
                JOINT rRing2
                {
                  OFFSET -2.60934 -0.819778 -0.0198488
                  CHANNELS 3 Zrotation Xrotation Yrotation
                  End Site
                  {
                    OFFSET -2.33842 -0.294052 0.168128
                  }
                }
              }
              JOINT rPinky1
              {
                OFFSET -8.27202 -0.0477905 -0.4584
                CHANNELS 3 Zrotation Xrotation Yrotation
                JOINT rPinky2
                {
                  OFFSET -1.82734 -0.647385 -0.700984
                  CHANNELS 3 Zrotation Xrotation Yrotation
                  End Site
                  {
                    OFFSET -1.69225 -0.51767 -0.607171
                  }
                }
              }
            }
          }
        }
      }
      JOINT lCollar
      {
        OFFSET 2.68224 19.2634 -4.8768
        CHANNELS 3 Zrotation Xrotation Yrotation
        JOINT lShldr
        {
          OFFSET 8.77824 -1.95073 1.46304
          CHANNELS 3 Zrotation Xrotation Yrotation
          JOINT lForeArm
          {
            OFFSET 28.1742 -1.7115 0.48768
            CHANNELS 3 Zrotation Xrotation Yrotation
            JOINT lHand
            {
              OFFSET 22.5879 0.773209 7.07136
              CHANNELS 3 Zrotation Xrotation Yrotation
              JOINT lThumb1
              {
                OFFSET 1.2192 -0.487915 3.41376
                CHANNELS 3 Zrotation Xrotation Yrotation
                JOINT lThumb2
                {
                  OFFSET 3.37035 -0.52449 3.41376
                  CHANNELS 3 Zrotation Xrotation Yrotation
                  End Site
                  {
                    OFFSET 1.78271 -1.18214 1.43049
                  }
                }
              }
              JOINT lIndex1
              {
                OFFSET 7.75947 0.938293 5.60832
                CHANNELS 3 Zrotation Xrotation Yrotation
                JOINT lIndex2
                {
                  OFFSET 2.54057 -0.884171 1.56538
                  CHANNELS 3 Zrotation Xrotation Yrotation
                  End Site
                  {
                    OFFSET 1.62519 -0.234802 1.16502
                  }
                }
              }
              JOINT lMid1
              {
                OFFSET 8.24714 1.18213 3.41376
                CHANNELS 3 Zrotation Xrotation Yrotation
                JOINT lMid2
                {
                  OFFSET 3.10165 -0.590103 1.0647
                  CHANNELS 3 Zrotation Xrotation Yrotation
                  End Site
                  {
                    OFFSET 2.48547 -0.328903 0.83742
                  }
                }
              }
              JOINT lRing1
              {
                OFFSET 8.82822 0.546677 1.51678
                CHANNELS 3 Zrotation Xrotation Yrotation
                JOINT lRing2
                {
                  OFFSET 2.60934 -0.819778 -0.0198488
                  CHANNELS 3 Zrotation Xrotation Yrotation
                  End Site
                  {
                    OFFSET 2.33842 -0.294052 0.168128
                  }
                }
              }
              JOINT lPinky1
              {
                OFFSET 8.27202 -0.0477905 -0.4584
                CHANNELS 3 Zrotation Xrotation Yrotation
                JOINT lPinky2
                {
                  OFFSET 1.82734 -0.647385 -0.700984
                  CHANNELS 3 Zrotation Xrotation Yrotation
                  End Site
                  {
                    OFFSET 1.69225 -0.51767 -0.607171
                  }
                }
              }
            }
          }
        }
      }
    }
  }
  JOINT rButtock
  {
    OFFSET -8.77824 4.35084 1.2192
    CHANNELS 3 Zrotation Xrotation Yrotation
    JOINT rThigh
    {
      OFFSET 0 -1.70687 -2.19456
      CHANNELS 3 Zrotation Xrotation Yrotation
      JOINT rShin
      {
        OFFSET 0 -36.8199 0.73152
        CHANNELS 3 Zrotation Xrotation Yrotation
        JOINT rFoot
        {
          OFFSET 0.73152 -45.1104 -5.12064
          CHANNELS 3 Zrotation Xrotation Yrotation
          End Site
          {
            OFFSET -1.1221 -3.69964 12.103
          }
        }
      }
    }
  }
  JOINT lButtock
  {
    OFFSET 8.77824 4.35084 1.2192
    CHANNELS 3 Zrotation Xrotation Yrotation
    JOINT lThigh
    {
      OFFSET 0 -1.70687 -2.19456
      CHANNELS 3 Zrotation Xrotation Yrotation
      JOINT lShin
      {
        OFFSET 0 -36.8199 0.73152
        CHANNELS 3 Zrotation Xrotation Yrotation
        JOINT lFoot
        {
          OFFSET -0.73152 -45.1104 -5.12064
          CHANNELS 3 Zrotation Xrotation Yrotation
          End Site
          {
            OFFSET 1.1221 -3.69964 12.103
          }
        }
      }
    }
  }
}
MOTION
Frames:	4
Frame Time:	0.00833333
-128.047 85.1237 -16.5051 0.0 0.0 0.0 0.435978 -0.0238512 0.0128203 0.121277 -0.0396247 0.0210496 -8.86903e-15 7.95139e-16 6.21195e-18 -2.63669e-14 9.54166e-15 2.01891e-17 -0.0 0.0 0.0 -0.0 0.0 0.0 -4.37459e-15 2.44598e-17 9.93923e-17 -8.99265e-14 1.17407e-15 5.96354e-16 -1.57467e-12 5.13858e-13 -3.18055e-15 -1.80877e-11 -2.66545e-13 3.18055e-15 -4.2652e-11 5.31401e-13 3.18055e-14 -7.36605e-11 9.1918e-13 5.1684e-14 -4.26461e-11 5.3314e-13 2.54444e-14 7.73091 5.47488 0.417314 -4.2652e-11 5.3155e-13 3.49861e-14 2.90554 0.965183 0.102902 -4.26455e-11 5.32147e-13 2.78299e-14 10.2786 0.731801 0.0259123 -4.26558e-11 5.32345e-13 3.49861e-14 2.22167 -0.733487 -0.20892 -4.47162e-15 2.48481e-17 -9.93923e-17 -9.46005e-14 1.17407e-15 -1.19271e-15 -1.58377e-12 -4.34146e-13 2.22639e-14 -1.8074e-11 6.7219e-13 -1.59028e-14 -4.26402e-11 5.14989e-13 2.22639e-14 -7.36346e-11 8.90555e-13 5.32743e-14 -4.26445e-11 5.1684e-13 2.8625e-14 -7.73091 5.47488 -0.417314 -4.26411e-11 5.1515e-13 1.90833e-14 -2.90554 0.965183 -0.102902 -4.26489e-11 5.1525e-13 2.70347e-14 -10.2786 0.731801 -0.0259123 -4.26345e-11 5.17635e-13 2.22639e-14 -2.22167 -0.733487 0.20892 -2.03217e-16 0.0 -3.88251e-19 0.651836 -4.71111 -0.069471 -0.000843039 2.9981 0.00382817 -0.326225 1.72323 0.0697678 2.03217e-16 0.0 3.88251e-19 0.0329964 -2.68024 0.0231634 0.00579602 -0.679775 0.0505512 0.296307 3.37021 -0.096701
-118.374 80.3352 -22.0434 -113.024 83.5469 -98.4881 5.36513 1.28272 0.736909 -0.536133 -5.26138 0.274892 -0.504806 -0.905798 -0.523321 -2.5796 0.849999 -0.631566 -0.0 0.0 0.0 -0.0 0.0 0.0 -4.51921e-14 -1.01948e-13 -5.44561e-15 18.6101 12.3937 -5.27273 -10.9437 -7.82068 12.9715 0.0254454 -3.54002 -0.494094 -1.08682e-10 1.0373e-10 -4.13815e-10 -1.82867e-10 1.79512e-10 -7.16221e-10 -1.08676e-10 1.03732e-10 -4.13821e-10 7.73091 5.47488 0.417314 -1.08682e-10 1.03729e-10 -4.13813e-10 2.90554 0.965183 0.102902 -1.08675e-10 1.0373e-10 -4.13818e-10 10.2786 0.731801 0.0259123 -1.08686e-10 1.03729e-10 -4.1381e-10 2.22167 -0.733487 -0.20892 -4.5299e-14 -1.01948e-13 -5.68866e-15 -22.0498 13.2949 7.82608 21.0362 -18.8519 -15.1227 -0.0205635 3.20584 -0.448067 -3.7357e-10 6.21119e-11 5.41123e-10 -6.42226e-10 1.07788e-10 9.39037e-10 -3.73577e-10 6.21137e-11 5.41134e-10 -7.73091 5.47488 -0.417314 -3.73571e-10 6.21123e-11 5.41121e-10 -2.90554 0.965183 -0.102902 -3.73578e-10 6.21122e-11 5.41128e-10 -10.2786 0.731801 -0.0259123 -3.73564e-10 6.21147e-11 5.41123e-10 -2.22167 -0.733487 0.20892 -2.03217e-16 0.0 -3.88251e-19 7.17057 -11.3374 1.37874 0.0486214 12.0767 0.0648021 -0.053167 -5.06105 0.234643 2.03217e-16 0.0 3.88251e-19 2.72834 -11.4761 1.66831 -0.143975 18.3044 -0.237014 -0.456156 -2.77867 0.238225
-115.468 79.6413 -21.6375 -102.14 82.7893 -86.3463 10.6126 2.6872 1.4799 -1.23648 -10.793 0.537039 -1.02401 -1.88405 -1.0498 -5.30862 1.74588 -1.25627 -0.0 0.0 0.0 -0.0 0.0 0.0 -8.82503e-14 -1.95727e-13 -1.18463e-14 41.075 25.1735 -11.8117 -18.5187 -14.501 27.2968 -0.0145109 -7.27519 -1.02185 -1.87091e-10 2.23109e-10 -9.74715e-10 -3.11791e-10 3.86017e-10 -1.68675e-09 -1.87086e-10 2.23111e-10 -9.74721e-10 7.73091 5.47488 0.417314 -1.87091e-10 2.23108e-10 -9.74713e-10 2.90554 0.965183 0.102902 -1.87085e-10 2.23108e-10 -9.74716e-10 10.2786 0.731801 0.0259123 -1.87095e-10 2.23107e-10 -9.74708e-10 2.22167 -0.733487 -0.20892 -8.83694e-14 -1.95728e-13 -1.21383e-14 -49.6184 26.532 17.3985 31.0828 -34.0806 -36.3616 0.0129241 6.63954 -0.932825 -7.54026e-10 1.42328e-10 1.17819e-09 -1.2959e-09 2.46904e-10 2.04439e-09 -7.54035e-10 1.42329e-10 1.17821e-09 -7.73091 5.47488 -0.417314 -7.54026e-10 1.42328e-10 1.17819e-09 -2.90554 0.965183 -0.102902 -7.54033e-10 1.42328e-10 1.1782e-09 -10.2786 0.731801 -0.0259123 -7.54019e-10 1.42331e-10 1.17819e-09 -2.22167 -0.733487 0.20892 -2.03217e-16 0.0 -3.88251e-19 14.4534 -18.561 2.95779 0.076022 21.7937 0.123735 0.29683 -12.2854 0.519276 2.03217e-16 0.0 3.88251e-19 6.19526 -20.6514 3.68935 -0.0375648 38.5745 -0.649802 -1.12014 -9.28107 0.952414
-111.904 79.5035 -21.7309 -98.2559 83.2612 -82.689 15.1242 3.89334 2.18959 -1.70748 -15.7036 0.809311 -1.5641 -2.71649 -1.57153 -7.68255 2.54876 -1.89637 -0.0 0.0 0.0 -0.0 0.0 0.0 -1.26827e-13 -3.05893e-13 -1.65356e-14 63.9107 35.7714 -19.166 -22.6631 -18.6003 41.1088 -0.109523 -10.6169 -1.50523 -2.40742e-10 3.10127e-10 -1.24151e-09 -4.01281e-10 5.36696e-10 -2.14877e-09 -2.40737e-10 3.10129e-10 -1.24151e-09 7.73091 5.47488 0.417314 -2.40741e-10 3.10125e-10 -1.24151e-09 2.90554 0.965183 0.102902 -2.40736e-10 3.10125e-10 -1.24151e-09 10.2786 0.731801 0.0259123 -2.40746e-10 3.10124e-10 -1.2415e-09 2.22167 -0.733487 -0.20892 -1.26954e-13 -3.05895e-13 -1.68672e-14 -78.91 36.5406 28.8965 30.1584 -38.6341 -60.5899 0.0905419 9.61516 -1.36122 -1.03543e-09 1.85306e-10 1.62333e-09 -1.77941e-09 3.21584e-10 2.81701e-09 -1.03544e-09 1.85307e-10 1.62335e-09 -7.73091 5.47488 -0.417314 -1.03543e-09 1.85306e-10 1.62333e-09 -2.90554 0.965183 -0.102902 -1.03544e-09 1.85306e-10 1.62333e-09 -10.2786 0.731801 -0.0259123 -1.03542e-09 1.85309e-10 1.62332e-09 -2.22167 -0.733487 0.20892 -2.03217e-16 0.0 -3.88251e-19 21.301 -24.5293 4.6109 0.0814865 30.2336 0.211183 0.616013 -18.6288 0.592771 2.03217e-16 0.0 3.88251e-19 9.82217 -28.9676 5.55537 0.496799 56.2654 -1.39771 -1.74007 -15.0746 0.939225
